<svg id="svg" version="1.1" xmlns="http://www.w3.org/2000/svg" xmlns:xlink="http://www.w3.org/1999/xlink" width="400" height="272.16494845360825" viewBox="0, 0, 400,272.16494845360825"><g id="svgg"><path id="path0" d="M0.000 136.147 L 0.000 272.294 200.000 272.294 L 400.000 272.294 400.000 136.147 L 400.000 0.000 200.000 0.000 L 0.000 0.000 0.000 136.147 M143.125 90.197 C 143.256 90.385,143.328 93.877,143.286 97.958 L 143.210 105.378 112.190 105.378 C 79.467 105.378,80.516 105.342,77.113 106.574 C 67.537 110.039,63.308 116.596,63.308 127.978 C 63.308 140.046,68.042 146.858,78.693 150.118 C 79.321 150.310,87.472 150.462,102.562 150.562 L 125.477 150.715 126.524 151.558 C 129.950 154.318,129.492 159.642,125.673 161.438 L 124.444 162.015 93.804 162.015 L 63.165 162.015 63.236 170.660 L 63.308 179.306 97.345 179.388 C 121.555 179.447,131.814 179.383,132.880 179.167 C 135.933 178.550,138.168 177.449,141.247 175.047 C 142.180 174.319,143.007 173.724,143.085 173.724 C 143.163 173.724,143.227 178.135,143.227 183.526 L 143.227 193.329 96.256 193.329 L 49.285 193.329 49.285 141.774 C 49.285 113.420,49.367 90.138,49.467 90.039 C 49.835 89.671,142.868 89.828,143.125 90.197 M342.968 90.116 C 343.158 90.306,343.298 191.251,343.111 193.125 C 343.080 193.433,242.069 193.380,242.069 193.071 C 242.069 192.930,242.846 191.919,243.796 190.825 C 246.096 188.175,247.556 185.959,248.910 183.064 C 249.526 181.746,250.159 180.391,250.316 180.054 L 250.603 179.442 282.783 179.442 C 300.626 179.442,315.315 179.335,315.752 179.201 C 316.187 179.069,317.093 178.802,317.767 178.607 C 324.290 176.726,330.280 170.041,331.533 163.244 C 333.785 151.025,329.435 140.771,319.988 136.026 C 316.391 134.219,316.725 134.241,292.418 134.241 C 268.623 134.241,269.545 134.300,267.857 132.660 C 264.985 129.869,265.855 124.969,269.494 123.444 C 270.212 123.144,275.895 123.076,300.808 123.073 C 317.549 123.070,331.401 122.970,331.590 122.850 C 331.858 122.680,331.918 120.739,331.862 114.073 L 331.790 105.514 298.026 105.443 C 261.019 105.364,263.135 105.281,259.037 106.981 C 256.503 108.032,255.250 108.768,253.599 110.173 C 252.080 111.465,251.604 111.636,251.593 110.892 C 251.586 110.475,250.631 106.487,250.075 104.561 C 249.286 101.822,245.251 95.580,242.277 92.496 C 241.115 91.291,240.163 90.204,240.163 90.081 C 240.163 89.759,342.646 89.794,342.968 90.116 M222.663 115.508 C 228.052 119.075,228.025 127.156,222.613 130.598 C 221.839 131.090,220.773 131.110,195.247 131.110 L 168.686 131.110 168.614 123.216 C 168.574 118.875,168.602 115.166,168.675 114.974 C 168.783 114.693,173.935 114.640,195.180 114.699 L 221.551 114.772 222.663 115.508 M143.227 131.654 C 143.227 136.372,143.127 140.231,143.005 140.231 C 142.884 140.231,142.434 139.866,142.007 139.420 C 140.635 137.989,137.482 136.074,135.079 135.214 L 132.743 134.377 109.598 134.233 C 96.869 134.153,86.423 134.061,86.386 134.029 C 82.613 130.673,82.125 126.376,85.263 124.141 C 86.673 123.138,87.061 123.124,115.385 123.100 L 143.227 123.077 143.227 131.654 M247.761 138.384 C 250.052 143.631,255.385 148.265,261.098 149.972 C 262.460 150.379,265.146 150.445,285.543 150.572 L 308.459 150.715 309.505 151.547 C 311.920 153.469,312.468 156.778,310.813 159.443 C 309.171 162.086,311.797 161.879,279.918 161.879 L 252.008 161.879 251.936 161.198 C 251.385 156.020,248.140 148.998,243.798 143.589 C 242.635 142.142,242.635 142.143,244.224 140.235 C 244.959 139.351,245.782 138.253,246.052 137.796 C 246.735 136.640,247.046 136.747,247.761 138.384 M221.675 153.889 C 227.010 155.703,228.334 164.408,223.914 168.608 C 222.198 170.238,223.207 170.184,194.656 170.184 L 168.550 170.184 168.550 161.879 L 168.550 153.574 194.650 153.574 C 213.682 153.574,221.000 153.659,221.675 153.889 " stroke="none" fill="#fbfbfb" fill-rule="evenodd"></path><path id="path1" d="M72.907 90.334 C 85.824 90.373,106.961 90.373,119.877 90.334 C 132.794 90.294,122.226 90.262,96.392 90.262 C 70.558 90.262,59.990 90.294,72.907 90.334 M240.614 90.333 C 240.545 90.446,263.497 90.507,291.619 90.468 L 342.751 90.399 342.796 92.908 C 342.822 94.288,342.907 95.482,342.986 95.561 C 343.064 95.640,343.090 94.481,343.042 92.985 L 342.954 90.265 291.848 90.197 C 263.739 90.159,240.684 90.220,240.614 90.333 M49.678 107.012 C 49.793 115.922,49.965 124.561,50.062 126.208 L 50.238 129.204 50.455 127.507 L 50.672 125.811 56.174 125.737 L 61.675 125.664 61.827 124.711 C 61.913 124.172,62.086 125.654,62.225 128.114 C 62.509 133.141,62.756 131.912,62.919 124.658 C 62.965 122.608,63.094 120.986,63.206 121.056 C 63.318 121.125,63.493 120.626,63.595 119.947 C 63.696 119.269,63.888 118.647,64.021 118.565 C 64.153 118.483,64.261 118.178,64.261 117.887 C 64.261 117.597,64.384 117.359,64.534 117.359 C 64.683 117.359,64.806 117.114,64.806 116.814 C 64.806 116.515,64.929 116.270,65.078 116.270 C 65.228 116.270,65.351 116.086,65.351 115.861 C 65.351 115.636,65.473 115.453,65.623 115.453 C 65.773 115.453,65.897 115.300,65.899 115.112 C 65.905 114.451,68.675 111.374,70.933 109.520 C 71.532 109.028,73.155 108.071,74.541 107.394 C 75.926 106.717,77.059 106.048,77.059 105.907 C 77.059 105.766,77.189 105.650,77.348 105.650 C 77.506 105.650,77.560 105.773,77.468 105.922 C 77.375 106.072,77.428 106.195,77.585 106.195 C 77.743 106.195,78.025 105.950,78.212 105.650 C 78.579 105.062,79.134 104.929,79.288 105.393 C 79.423 105.797,80.327 105.402,80.327 104.940 C 80.327 104.506,81.298 104.423,81.553 104.835 C 81.666 105.017,92.095 105.108,112.475 105.103 L 143.227 105.096 143.227 97.953 L 143.227 90.810 96.349 90.810 L 49.471 90.810 49.678 107.012 M242.397 92.227 C 243.166 93.006,243.917 93.569,244.064 93.478 C 244.215 93.385,244.246 93.452,244.135 93.632 C 243.854 94.087,245.532 96.132,246.030 95.941 C 246.248 95.858,246.426 95.925,246.426 96.091 C 246.426 96.256,246.301 96.392,246.148 96.392 C 245.994 96.392,246.065 96.691,246.304 97.056 C 246.544 97.422,246.903 97.658,247.103 97.581 C 247.481 97.436,247.865 98.235,247.729 98.883 C 247.686 99.085,247.814 99.218,248.012 99.176 C 248.210 99.135,248.302 99.216,248.215 99.356 C 247.933 99.813,248.366 100.581,248.668 100.159 C 248.865 99.884,248.893 99.907,248.781 100.256 C 248.700 100.509,248.936 101.305,249.304 102.026 C 249.672 102.746,250.219 104.193,250.520 105.242 C 251.574 108.918,251.715 109.328,251.997 109.526 C 252.186 109.660,252.176 109.728,251.966 109.730 C 251.785 109.733,251.712 109.967,251.793 110.279 C 251.985 111.013,252.021 111.001,253.804 109.600 C 254.660 108.928,256.243 107.962,257.322 107.455 C 258.400 106.947,259.178 106.476,259.049 106.408 C 258.921 106.340,258.976 106.324,259.171 106.373 C 259.672 106.498,261.402 105.737,261.402 105.392 C 261.402 105.234,261.586 105.106,261.811 105.106 C 262.035 105.106,262.219 105.217,262.219 105.352 C 262.219 105.488,262.463 105.535,262.761 105.458 C 263.059 105.380,263.235 105.206,263.152 105.073 C 262.903 104.670,263.888 104.452,264.430 104.790 C 264.805 105.025,273.530 105.106,298.439 105.106 C 325.004 105.106,331.966 105.176,332.050 105.446 C 332.278 106.175,332.470 122.688,332.254 123.013 C 332.071 123.288,325.887 123.359,301.819 123.364 C 272.104 123.370,268.154 123.475,268.922 124.243 C 269.029 124.350,268.913 124.438,268.663 124.438 C 268.414 124.438,268.210 124.561,268.210 124.711 C 268.210 124.860,268.347 124.983,268.515 124.983 C 268.740 124.983,268.739 125.082,268.512 125.355 C 267.990 125.985,268.755 126.385,269.865 126.063 C 270.460 125.891,283.624 125.799,306.361 125.808 L 341.926 125.823 342.100 127.485 C 342.195 128.399,342.296 130.201,342.323 131.490 C 342.447 137.316,342.741 123.875,342.723 113.274 C 342.710 106.208,342.645 103.504,342.556 106.331 C 342.421 110.590,342.393 110.181,342.198 101.212 C 342.081 95.850,342.057 91.348,342.145 91.206 C 342.245 91.045,323.377 90.923,291.651 90.880 L 240.997 90.810 242.397 92.227 M50.294 93.193 C 50.229 93.530,50.176 93.254,50.176 92.580 C 50.176 91.906,50.229 91.630,50.294 91.967 C 50.359 92.304,50.359 92.856,50.294 93.193 M142.605 93.325 C 142.543 93.739,142.490 93.465,142.488 92.716 C 142.486 91.967,142.537 91.629,142.601 91.964 C 142.666 92.298,142.668 92.911,142.605 93.325 M87.202 123.693 C 86.566 123.846,86.045 124.076,86.045 124.205 C 86.045 124.333,85.914 124.438,85.753 124.438 C 85.083 124.438,84.618 125.229,85.040 125.651 C 85.258 125.868,85.511 125.970,85.604 125.878 C 85.697 125.785,85.773 125.839,85.773 125.998 C 85.773 126.500,86.612 126.632,87.199 126.221 C 87.684 125.881,91.629 125.822,114.933 125.806 L 142.102 125.788 142.316 127.087 C 142.526 128.365,142.533 128.348,142.712 126.072 C 142.813 124.799,142.840 123.666,142.772 123.553 C 142.579 123.231,88.557 123.367,87.202 123.693 M267.461 125.390 C 267.052 125.855,267.017 126.344,267.393 126.344 C 267.543 126.344,267.665 126.161,267.665 125.936 C 267.665 125.711,267.788 125.528,267.937 125.528 C 268.087 125.528,268.210 125.405,268.210 125.255 C 268.210 124.872,267.862 124.935,267.461 125.390 M83.594 128.523 C 83.594 129.421,83.697 130.157,83.822 130.157 C 83.947 130.157,84.076 129.421,84.108 128.523 C 84.145 127.524,84.056 126.889,83.881 126.889 C 83.712 126.889,83.594 127.561,83.594 128.523 M266.576 127.281 C 266.576 127.497,266.698 127.750,266.848 127.842 C 266.998 127.935,267.120 127.758,267.120 127.450 C 267.120 127.141,266.998 126.889,266.848 126.889 C 266.698 126.889,266.576 127.066,266.576 127.281 M131.181 133.889 C 131.520 133.954,132.010 133.952,132.270 133.883 C 132.530 133.815,132.253 133.762,131.654 133.765 C 131.055 133.768,130.842 133.824,131.181 133.889 M314.162 133.889 C 314.501 133.954,314.991 133.952,315.252 133.883 C 315.512 133.815,315.235 133.762,314.636 133.765 C 314.037 133.768,313.824 133.824,314.162 133.889 M342.323 150.878 C 342.223 156.175,341.999 157.713,341.427 157.028 C 341.154 156.701,340.926 156.555,340.921 156.705 C 340.916 156.878,339.565 156.943,337.236 156.883 C 334.299 156.807,333.554 156.862,333.528 157.155 C 333.475 157.764,333.085 155.968,333.017 154.799 L 332.953 153.710 332.728 154.799 C 332.604 155.398,332.495 156.768,332.487 157.843 C 332.466 160.433,332.012 163.587,331.353 165.721 C 331.058 166.675,330.852 167.495,330.895 167.545 C 330.938 167.595,330.758 167.851,330.494 168.115 C 330.231 168.378,330.085 168.707,330.170 168.844 C 330.255 168.982,330.208 169.095,330.065 169.095 C 329.922 169.095,329.423 169.690,328.957 170.417 C 328.490 171.144,327.867 171.957,327.573 172.223 C 327.279 172.489,327.106 172.816,327.188 172.950 C 327.270 173.083,327.176 173.159,326.977 173.118 C 326.779 173.077,326.650 173.205,326.692 173.403 C 326.733 173.602,326.659 173.698,326.527 173.616 C 326.395 173.535,325.998 173.776,325.644 174.153 C 323.954 175.952,320.125 178.363,318.333 178.757 C 317.869 178.858,317.543 179.028,317.609 179.133 C 317.674 179.239,317.154 179.351,316.454 179.382 C 315.753 179.413,314.752 179.562,314.229 179.712 C 313.616 179.889,302.147 179.986,281.913 179.986 L 250.547 179.986 250.360 180.599 C 250.257 180.936,249.810 181.972,249.366 182.902 C 248.922 183.832,248.649 184.739,248.760 184.918 C 248.877 185.109,248.846 185.173,248.683 185.072 C 248.388 184.890,246.575 187.578,246.824 187.827 C 246.905 187.908,246.971 187.831,246.971 187.656 C 246.971 187.481,247.108 187.338,247.276 187.338 C 247.488 187.338,247.477 187.465,247.243 187.747 C 247.057 187.971,246.758 188.155,246.580 188.155 C 246.107 188.155,245.007 189.747,245.230 190.109 C 245.338 190.284,245.300 190.343,245.143 190.246 C 244.753 190.005,243.876 191.042,244.127 191.448 C 244.258 191.660,244.218 191.709,244.015 191.584 C 243.841 191.476,243.509 191.578,243.276 191.811 C 242.894 192.193,247.603 192.234,292.385 192.238 L 341.917 192.242 342.095 188.522 C 342.193 186.476,342.301 181.850,342.334 178.241 L 342.395 171.681 342.546 178.353 C 342.662 183.484,342.703 181.976,342.722 171.818 C 342.736 164.554,342.663 156.283,342.560 153.438 C 342.438 150.063,342.355 149.173,342.323 150.878 M79.578 151.039 C 79.840 151.107,80.269 151.107,80.531 151.039 C 80.793 150.970,80.579 150.914,80.054 150.914 C 79.530 150.914,79.316 150.970,79.578 151.039 M262.560 151.039 C 262.822 151.107,263.251 151.107,263.513 151.039 C 263.775 150.970,263.560 150.914,263.036 150.914 C 262.512 150.914,262.297 150.970,262.560 151.039 M50.024 157.931 C 49.635 165.318,49.446 193.056,49.785 193.057 C 49.960 193.058,70.933 193.058,96.392 193.058 C 121.852 193.058,142.807 193.058,142.960 193.057 C 143.145 193.057,143.232 189.845,143.220 183.524 C 143.199 173.233,143.214 173.324,141.851 174.966 C 141.312 175.616,137.605 178.080,137.167 178.080 C 136.965 178.080,136.649 178.232,136.463 178.418 C 136.278 178.603,135.978 178.768,135.796 178.785 C 135.615 178.801,135.221 178.835,134.922 178.860 C 134.534 178.892,134.477 178.969,134.724 179.125 C 134.928 179.255,134.482 179.363,133.634 179.388 C 132.845 179.411,131.771 179.555,131.248 179.708 C 129.570 180.199,63.975 180.082,63.269 179.588 C 62.955 179.368,62.622 179.266,62.527 179.361 C 62.433 179.455,62.381 175.683,62.413 170.978 C 62.461 163.867,62.497 163.158,62.628 166.780 L 62.785 171.137 62.842 166.442 L 62.900 161.747 93.465 161.664 C 121.111 161.588,125.349 161.495,125.800 160.953 C 125.875 160.863,126.177 160.657,126.471 160.494 C 127.399 159.980,128.234 157.962,128.243 156.213 C 128.248 155.226,128.148 154.694,127.978 154.799 C 127.828 154.892,127.706 155.420,127.706 155.973 L 127.706 156.978 89.533 156.907 C 62.874 156.857,51.273 156.923,51.072 157.125 C 50.868 157.329,50.699 156.948,50.500 155.834 C 50.222 154.277,50.215 154.306,50.024 157.931 M310.688 156.145 C 310.688 157.568,310.364 157.866,309.460 157.273 C 308.869 156.886,305.902 156.841,280.745 156.841 L 252.689 156.841 252.689 157.658 C 252.689 158.108,252.566 158.475,252.417 158.475 C 252.267 158.475,252.141 158.138,252.136 157.726 C 252.129 157.046,252.100 157.025,251.826 157.498 C 251.603 157.881,251.606 158.150,251.834 158.515 C 252.005 158.789,252.144 159.626,252.144 160.375 L 252.144 161.738 279.442 161.648 C 305.290 161.563,308.781 161.474,308.781 160.896 C 308.781 160.763,308.913 160.654,309.073 160.654 C 309.450 160.654,310.143 159.961,310.143 159.584 C 310.143 159.423,310.236 159.292,310.349 159.292 C 310.674 159.292,311.232 157.231,311.232 156.029 C 311.232 155.427,311.110 154.935,310.960 154.935 C 310.810 154.935,310.688 155.479,310.688 156.145 M309.655 156.831 C 309.884 157.198,310.049 157.266,310.184 157.048 C 310.435 156.641,310.220 156.297,309.716 156.297 C 309.392 156.297,309.381 156.393,309.655 156.831 M246.070 189.368 C 245.448 189.989,245.170 189.881,245.747 189.243 C 246.019 188.942,246.297 188.753,246.366 188.821 C 246.435 188.890,246.301 189.136,246.070 189.368 M342.864 191.628 L 342.818 192.787 292.716 192.783 C 265.160 192.780,242.614 192.842,242.614 192.919 C 242.614 193.167,342.641 193.070,342.890 192.822 C 343.021 192.691,343.079 192.108,343.019 191.527 L 342.910 190.470 342.864 191.628 M142.818 192.512 C 142.930 192.693,127.391 192.784,96.408 192.784 C 65.537 192.784,49.830 192.692,49.830 192.512 C 49.830 192.331,65.481 192.240,96.240 192.240 C 126.886 192.240,142.707 192.332,142.818 192.512 " stroke="none" fill="#b99b40" fill-rule="evenodd"></path><path id="path2" d="M168.550 122.941 L 168.550 130.973 194.972 130.973 L 221.393 130.973 222.721 130.301 C 223.993 129.656,225.732 127.630,225.732 126.794 C 225.732 126.607,225.864 126.322,226.025 126.160 C 226.703 125.482,226.431 120.604,225.625 118.993 C 223.423 114.591,225.815 114.908,194.829 114.908 L 168.550 114.908 168.550 122.941 M168.550 161.879 L 168.550 169.912 194.656 169.912 C 223.561 169.912,221.991 169.988,223.694 168.489 C 227.915 164.774,227.122 156.582,222.328 154.362 C 221.292 153.883,219.956 153.858,194.894 153.852 L 168.550 153.846 168.550 161.879 " stroke="none" fill="#0e3c75" fill-rule="evenodd"></path><path id="path3" d="M49.694 90.674 C 49.805 90.854,65.666 90.946,96.392 90.946 C 127.118 90.946,142.979 90.854,143.091 90.674 C 143.202 90.493,127.567 90.402,96.392 90.402 C 65.217 90.402,49.582 90.493,49.694 90.674 M240.980 90.674 C 241.240 90.842,259.741 90.939,291.847 90.942 C 323.665 90.945,342.247 91.042,342.146 91.205 C 341.991 91.455,342.282 110.906,342.438 110.750 C 342.480 110.708,342.594 106.112,342.691 100.538 L 342.868 90.402 291.720 90.406 C 258.597 90.409,240.716 90.503,240.980 90.674 M50.176 92.580 C 50.176 93.254,50.229 93.530,50.294 93.193 C 50.359 92.856,50.359 92.304,50.294 91.967 C 50.229 91.630,50.176 91.906,50.176 92.580 M142.488 92.716 C 142.490 93.465,142.543 93.739,142.605 93.325 C 142.668 92.911,142.666 92.298,142.601 91.964 C 142.537 91.629,142.486 91.967,142.488 92.716 M245.613 95.488 C 245.621 95.905,246.123 96.513,246.308 96.329 C 246.408 96.228,246.293 95.947,246.050 95.705 C 245.808 95.462,245.611 95.365,245.613 95.488 M246.971 97.754 C 246.971 97.903,247.093 98.026,247.243 98.026 C 247.393 98.026,247.515 98.230,247.515 98.480 C 247.515 98.729,247.588 98.861,247.676 98.773 C 247.903 98.545,247.531 97.481,247.225 97.481 C 247.085 97.481,246.971 97.604,246.971 97.754 M80.327 104.833 C 80.327 104.983,80.640 105.106,81.024 105.106 C 81.419 105.106,81.648 104.988,81.552 104.833 C 81.460 104.683,81.146 104.561,80.855 104.561 C 80.565 104.561,80.327 104.683,80.327 104.833 M263.172 104.833 C 263.074 104.993,263.356 105.106,263.853 105.106 C 264.350 105.106,264.632 104.993,264.534 104.833 C 264.441 104.683,264.135 104.561,263.853 104.561 C 263.571 104.561,263.265 104.683,263.172 104.833 M78.421 105.378 C 78.421 105.528,78.604 105.650,78.829 105.650 C 79.054 105.650,79.238 105.528,79.238 105.378 C 79.238 105.228,79.054 105.106,78.829 105.106 C 78.604 105.106,78.421 105.228,78.421 105.378 M261.402 105.378 C 261.402 105.528,261.586 105.650,261.811 105.650 C 262.035 105.650,262.219 105.528,262.219 105.378 C 262.219 105.228,262.035 105.106,261.811 105.106 C 261.586 105.106,261.402 105.228,261.402 105.378 M62.355 170.971 C 62.355 176.860,62.444 179.419,62.642 179.297 C 62.915 179.128,62.744 162.865,62.467 162.582 C 62.405 162.520,62.355 166.295,62.355 170.971 M342.274 178.264 C 342.274 181.860,342.193 186.476,342.095 188.522 L 341.917 192.243 292.742 192.240 C 265.696 192.238,243.414 192.237,243.227 192.238 C 243.039 192.239,242.886 192.362,242.886 192.512 C 242.886 192.692,259.727 192.784,292.863 192.784 L 342.841 192.784 342.656 182.369 C 342.555 176.641,342.427 171.903,342.373 171.840 C 342.318 171.778,342.274 174.669,342.274 178.264 M245.747 189.243 C 245.475 189.543,245.342 189.789,245.450 189.789 C 245.737 189.789,246.514 188.969,246.366 188.821 C 246.297 188.753,246.019 188.942,245.747 189.243 M49.830 192.512 C 49.830 192.692,65.537 192.784,96.408 192.784 C 127.391 192.784,142.930 192.693,142.818 192.512 C 142.707 192.332,126.886 192.240,96.240 192.240 C 65.481 192.240,49.830 192.331,49.830 192.512 " stroke="none" fill="#9b6c04" fill-rule="evenodd"></path><path id="path4" d="M49.467 90.039 C 48.978 90.527,49.272 193.329,49.762 193.325 C 50.148 193.321,50.165 193.274,49.853 193.077 C 49.458 192.826,49.636 164.257,50.078 157.114 L 50.254 154.255 50.483 155.827 C 50.658 157.036,50.789 157.334,51.051 157.117 C 51.282 156.926,63.557 156.858,89.548 156.907 L 127.706 156.978 127.706 155.973 C 127.706 155.420,127.828 154.892,127.978 154.799 C 128.148 154.694,128.248 155.226,128.243 156.213 C 128.234 157.962,127.399 159.980,126.471 160.494 C 126.177 160.657,125.875 160.863,125.800 160.953 C 125.349 161.495,121.111 161.588,93.465 161.664 L 62.900 161.747 62.900 170.585 C 62.900 179.044,62.923 179.435,63.427 179.705 C 64.044 180.035,129.530 180.110,131.007 179.782 C 131.513 179.670,116.487 179.517,97.617 179.442 L 63.308 179.306 63.236 170.660 L 63.165 162.015 93.804 162.015 L 124.444 162.015 125.673 161.438 C 129.492 159.642,129.950 154.318,126.524 151.558 L 125.477 150.715 102.562 150.562 C 87.472 150.462,79.321 150.310,78.693 150.118 C 68.042 146.858,63.308 140.046,63.308 127.978 C 63.308 118.022,66.890 111.189,73.750 108.059 C 74.401 107.761,74.869 107.453,74.790 107.374 C 73.995 106.579,65.914 113.612,65.899 115.112 C 65.897 115.300,65.773 115.453,65.623 115.453 C 65.473 115.453,65.351 115.636,65.351 115.861 C 65.351 116.086,65.228 116.270,65.078 116.270 C 64.929 116.270,64.806 116.515,64.806 116.814 C 64.806 117.114,64.683 117.359,64.534 117.359 C 64.384 117.359,64.261 117.583,64.261 117.858 C 64.261 118.133,64.177 118.441,64.074 118.544 C 63.539 119.080,62.927 122.661,62.882 125.528 C 62.780 131.937,62.508 133.014,62.228 128.114 C 62.087 125.646,61.913 124.171,61.827 124.711 L 61.675 125.664 56.174 125.737 L 50.672 125.811 50.455 127.507 L 50.238 129.204 50.062 126.208 C 49.964 124.561,49.791 115.770,49.677 106.672 L 49.470 90.131 96.280 90.061 L 143.091 89.992 96.369 89.924 C 70.673 89.887,49.567 89.939,49.467 90.039 M240.163 90.078 C 240.163 90.199,241.228 91.393,242.530 92.732 C 243.832 94.071,244.517 94.674,244.053 94.071 C 243.589 93.468,242.586 92.392,241.825 91.679 C 240.985 90.893,240.573 90.332,240.778 90.254 C 240.964 90.184,264.030 90.157,292.035 90.196 L 342.954 90.265 342.849 107.148 C 342.753 122.497,342.431 137.302,342.319 131.490 C 342.294 130.201,342.195 128.399,342.100 127.485 L 341.926 125.823 306.361 125.808 C 283.624 125.799,270.460 125.891,269.865 126.063 C 268.755 126.385,267.990 125.985,268.512 125.355 C 268.739 125.082,268.740 124.983,268.515 124.983 C 268.347 124.983,268.210 124.860,268.210 124.711 C 268.210 124.561,268.414 124.438,268.663 124.438 C 268.913 124.438,269.029 124.350,268.922 124.243 C 268.154 123.475,272.104 123.370,301.819 123.364 C 325.887 123.359,332.071 123.288,332.254 123.013 C 332.470 122.688,332.278 106.175,332.050 105.446 C 331.966 105.176,324.899 105.106,297.912 105.106 C 262.463 105.106,262.956 105.091,260.177 106.194 C 259.728 106.373,259.067 106.633,258.710 106.773 C 258.352 106.912,258.120 107.088,258.195 107.162 C 258.269 107.237,258.891 107.057,259.577 106.763 C 262.947 105.319,261.582 105.366,298.026 105.443 L 331.790 105.514 331.862 114.073 C 331.918 120.739,331.858 122.680,331.590 122.850 C 331.401 122.970,317.549 123.070,300.808 123.073 C 275.895 123.076,270.212 123.144,269.494 123.444 C 265.855 124.969,264.985 129.869,267.857 132.660 C 269.545 134.300,268.623 134.241,292.418 134.241 C 316.725 134.241,316.391 134.219,319.988 136.026 C 329.435 140.771,333.785 151.025,331.533 163.244 C 330.280 170.041,324.297 176.718,317.767 178.609 C 315.313 179.319,315.120 179.397,315.745 179.420 C 317.240 179.477,321.138 177.759,323.440 176.029 C 329.604 171.395,332.423 165.728,332.487 157.843 C 332.495 156.768,332.604 155.398,332.728 154.799 L 332.953 153.710 333.017 154.799 C 333.085 155.968,333.475 157.764,333.528 157.155 C 333.554 156.862,334.299 156.807,337.236 156.883 C 339.565 156.943,340.916 156.878,340.921 156.705 C 340.926 156.555,341.154 156.701,341.427 157.028 C 342.000 157.714,342.226 156.154,342.320 150.878 C 342.348 149.328,342.445 150.480,342.558 153.710 C 342.818 161.140,342.933 192.651,342.701 193.026 C 342.598 193.193,342.644 193.329,342.802 193.329 C 342.961 193.329,343.100 193.237,343.111 193.125 C 343.298 191.251,343.158 90.306,342.968 90.116 C 342.648 89.796,240.163 89.758,240.163 90.078 M246.285 97.521 C 247.589 99.457,248.842 101.789,250.215 104.833 C 250.513 105.494,250.517 105.491,250.363 104.697 C 250.033 103.009,246.039 96.041,245.049 95.430 C 244.886 95.329,245.442 96.270,246.285 97.521 M80.054 105.378 C 79.830 105.523,79.316 105.644,78.913 105.646 C 78.510 105.648,78.105 105.773,78.012 105.922 C 77.920 106.072,77.682 106.195,77.485 106.195 C 77.002 106.195,75.065 107.014,75.208 107.157 C 75.271 107.220,75.988 107.013,76.803 106.698 C 77.618 106.383,78.713 105.992,79.238 105.828 C 79.890 105.625,90.148 105.485,111.777 105.384 L 143.363 105.236 111.913 105.175 C 91.963 105.136,80.314 105.210,80.054 105.378 M250.549 106.059 C 250.549 106.358,250.654 106.848,250.783 107.148 L 251.017 107.692 251.017 107.148 C 251.017 106.848,250.912 106.358,250.783 106.059 L 250.549 105.514 250.549 106.059 M256.365 107.879 C 255.766 108.194,254.594 108.985,253.761 109.637 C 251.926 111.075,251.939 111.074,251.724 109.803 C 251.483 108.371,251.299 107.766,251.150 107.915 C 250.946 108.119,251.684 111.368,251.934 111.368 C 252.058 111.368,252.976 110.694,253.974 109.871 C 254.973 109.047,255.886 108.373,256.003 108.373 C 256.120 108.373,256.617 108.128,257.107 107.829 C 258.279 107.115,257.755 107.150,256.365 107.879 M181.668 114.840 C 188.807 114.880,200.570 114.880,207.808 114.840 C 215.045 114.800,209.204 114.767,194.826 114.767 C 180.449 114.767,174.528 114.800,181.668 114.840 M86.805 123.346 C 82.228 124.726,82.015 130.142,86.386 134.029 C 86.423 134.061,96.869 134.153,109.598 134.233 L 132.743 134.377 135.079 135.214 C 137.482 136.074,140.635 137.989,142.007 139.420 C 142.434 139.866,142.884 140.231,143.005 140.231 C 143.127 140.231,143.227 136.372,143.227 131.654 L 143.227 123.077 115.385 123.100 C 100.071 123.113,87.211 123.224,86.805 123.346 M142.772 123.553 C 142.840 123.666,142.813 124.799,142.712 126.072 C 142.533 128.348,142.526 128.365,142.316 127.087 L 142.102 125.788 114.933 125.806 C 91.629 125.822,87.684 125.881,87.199 126.221 C 86.612 126.632,85.773 126.500,85.773 125.998 C 85.773 125.839,85.697 125.785,85.604 125.878 C 85.511 125.970,85.258 125.868,85.040 125.651 C 84.618 125.229,85.083 124.438,85.753 124.438 C 85.914 124.438,86.045 124.333,86.045 124.205 C 86.045 123.472,142.336 122.826,142.772 123.553 M268.210 125.255 C 268.210 125.405,268.087 125.528,267.937 125.528 C 267.788 125.528,267.665 125.711,267.665 125.936 C 267.665 126.161,267.543 126.344,267.393 126.344 C 267.017 126.344,267.052 125.855,267.461 125.390 C 267.862 124.935,268.210 124.872,268.210 125.255 M84.108 128.523 C 84.076 129.421,83.947 130.157,83.822 130.157 C 83.697 130.157,83.594 129.421,83.594 128.523 C 83.594 127.561,83.712 126.889,83.881 126.889 C 84.056 126.889,84.145 127.524,84.108 128.523 M267.120 127.450 C 267.120 127.758,266.998 127.935,266.848 127.842 C 266.698 127.750,266.576 127.497,266.576 127.281 C 266.576 127.066,266.698 126.889,266.848 126.889 C 266.998 126.889,267.120 127.141,267.120 127.450 M181.688 131.178 C 188.839 131.218,200.541 131.218,207.692 131.178 C 214.843 131.137,208.993 131.104,194.690 131.104 C 180.388 131.104,174.537 131.137,181.688 131.178 M132.270 133.883 C 132.010 133.952,131.520 133.954,131.181 133.889 C 130.842 133.824,131.055 133.768,131.654 133.765 C 132.253 133.762,132.530 133.815,132.270 133.883 M315.252 133.883 C 314.991 133.952,314.501 133.954,314.162 133.889 C 313.824 133.824,314.037 133.768,314.636 133.765 C 315.235 133.762,315.512 133.815,315.252 133.883 M246.052 137.796 C 245.782 138.253,244.959 139.351,244.224 140.235 C 242.635 142.143,242.635 142.142,243.798 143.589 C 248.140 148.998,251.385 156.020,251.936 161.198 L 252.008 161.879 279.918 161.879 C 311.797 161.879,309.171 162.086,310.813 159.443 C 312.468 156.778,311.920 153.469,309.505 151.547 L 308.459 150.715 285.543 150.572 C 265.146 150.445,262.460 150.379,261.098 149.972 C 255.385 148.265,250.052 143.631,247.761 138.384 C 247.046 136.747,246.735 136.640,246.052 137.796 M80.531 151.039 C 80.269 151.107,79.840 151.107,79.578 151.039 C 79.316 150.970,79.530 150.914,80.054 150.914 C 80.579 150.914,80.793 150.970,80.531 151.039 M263.513 151.039 C 263.251 151.107,262.822 151.107,262.560 151.039 C 262.297 150.970,262.512 150.914,263.036 150.914 C 263.560 150.914,263.775 150.970,263.513 151.039 M181.709 153.778 C 189.021 153.818,200.907 153.818,208.121 153.778 C 215.336 153.738,209.353 153.705,194.826 153.705 C 180.300 153.705,174.397 153.738,181.709 153.778 M311.232 156.029 C 311.232 157.231,310.674 159.292,310.349 159.292 C 310.236 159.292,310.143 159.423,310.143 159.584 C 310.143 159.961,309.450 160.654,309.073 160.654 C 308.913 160.654,308.781 160.763,308.781 160.896 C 308.781 161.474,305.290 161.563,279.442 161.648 L 252.144 161.738 252.144 160.375 C 252.144 159.626,252.005 158.789,251.834 158.515 C 251.606 158.150,251.603 157.881,251.826 157.498 C 252.100 157.025,252.129 157.046,252.136 157.726 C 252.141 158.138,252.267 158.475,252.417 158.475 C 252.566 158.475,252.689 158.108,252.689 157.658 L 252.689 156.841 280.745 156.841 C 305.902 156.841,308.869 156.886,309.460 157.273 C 310.364 157.866,310.688 157.568,310.688 156.145 C 310.688 155.479,310.810 154.935,310.960 154.935 C 311.110 154.935,311.232 155.427,311.232 156.029 M310.245 156.514 C 310.319 156.633,310.291 156.874,310.184 157.048 C 310.049 157.266,309.884 157.198,309.655 156.831 C 309.381 156.393,309.392 156.297,309.716 156.297 C 309.933 156.297,310.171 156.395,310.245 156.514 M181.437 170.116 C 188.599 170.156,200.240 170.156,207.305 170.116 C 214.369 170.075,208.509 170.042,194.282 170.042 C 180.054 170.042,174.274 170.075,181.437 170.116 M140.800 175.357 C 139.019 176.759,138.157 177.265,135.330 178.569 C 134.667 178.875,134.670 178.879,135.466 178.719 C 135.916 178.628,136.400 178.448,136.542 178.317 C 136.684 178.187,136.965 178.080,137.167 178.080 C 137.583 178.080,140.980 175.786,142.400 174.547 C 144.019 173.132,142.916 173.691,140.800 175.357 M132.880 179.170 L 132.199 179.388 132.880 179.396 C 133.254 179.400,133.805 179.298,134.105 179.170 L 134.649 178.935 134.105 178.943 C 133.805 178.948,133.254 179.050,132.880 179.170 M250.316 180.054 C 250.159 180.391,249.526 181.746,248.910 183.064 C 247.556 185.959,246.096 188.175,243.796 190.825 C 242.100 192.778,241.784 193.329,242.358 193.329 C 242.516 193.329,242.583 193.226,242.505 193.101 C 242.428 192.975,242.911 192.271,243.580 191.535 C 246.204 188.647,248.898 184.403,250.091 181.280 L 250.585 179.986 282.066 179.959 C 299.380 179.944,313.853 179.834,314.227 179.714 C 314.602 179.594,300.439 179.484,282.755 179.469 L 250.603 179.442 250.316 180.054 M73.315 193.261 C 86.007 193.300,106.777 193.300,119.469 193.261 C 132.161 193.222,121.777 193.190,96.392 193.190 C 71.007 193.190,60.623 193.222,73.315 193.261 M267.755 193.261 C 281.507 193.300,303.931 193.300,317.585 193.261 C 331.238 193.222,319.986 193.190,292.580 193.190 C 265.174 193.190,254.002 193.222,267.755 193.261 " stroke="none" fill="#dcbc5d" fill-rule="evenodd"></path></g></svg>